<?xml version="1.0" encoding="UTF-8" standalone="no"?>
<!-- Created with Inkscape (http://www.inkscape.org/) -->

<svg
   xmlns:dc="http://purl.org/dc/elements/1.1/"
   xmlns:cc="http://creativecommons.org/ns#"
   xmlns:rdf="http://www.w3.org/1999/02/22-rdf-syntax-ns#"
   xmlns:svg="http://www.w3.org/2000/svg"
   xmlns="http://www.w3.org/2000/svg"
   xmlns:sodipodi="http://sodipodi.sourceforge.net/DTD/sodipodi-0.dtd"
   xmlns:inkscape="http://www.inkscape.org/namespaces/inkscape"
   width="210mm"
   height="297mm"
   viewBox="0 0 210 297"
   version="1.1"
   id="svg8"
   inkscape:version="0.92.5 (2060ec1f9f, 2020-04-08)"
   sodipodi:docname="logo.svg">
  <defs
     id="defs2" />
  <sodipodi:namedview
     id="base"
     pagecolor="#ffffff"
     bordercolor="#666666"
     borderopacity="1.0"
     inkscape:pageopacity="0.0"
     inkscape:pageshadow="2"
     inkscape:zoom="1.4"
     inkscape:cx="332.98355"
     inkscape:cy="918.15411"
     inkscape:document-units="mm"
     inkscape:current-layer="layer1"
     showgrid="false"
     inkscape:window-width="1920"
     inkscape:window-height="955"
     inkscape:window-x="0"
     inkscape:window-y="27"
     inkscape:window-maximized="1" />
  <metadata
     id="metadata5">
    <rdf:RDF>
      <cc:Work
         rdf:about="">
        <dc:format>image/svg+xml</dc:format>
        <dc:type
           rdf:resource="http://purl.org/dc/dcmitype/StillImage" />
        <dc:title></dc:title>
      </cc:Work>
    </rdf:RDF>
  </metadata>
  <g
     inkscape:label="Layer 1"
     inkscape:groupmode="layer"
     id="layer1">
    <path
       style="opacity:1;vector-effect:none;fill:#00abd2;fill-opacity:1;fill-rule:evenodd;stroke:none;stroke-width:1.94704103;stroke-linecap:round;stroke-linejoin:round;stroke-miterlimit:4;stroke-dasharray:none;stroke-dashoffset:0;stroke-opacity:1;paint-order:fill markers stroke"
       d="m 22.442482,46.694825 a 10.205357,10.205357 0 0 0 -6.444567,2.299599 c 0.418859,-0.0508 0.864875,-0.077 1.340487,-0.077 1.721845,0 3.03739,0.300214 3.947046,0.901237 0.909654,0.601019 1.543294,1.61635 1.900659,3.045806 l -2.2903,0.402045 c -0.194926,-0.909656 -0.585176,-1.567428 -1.169953,-1.973524 -0.584779,-0.414219 -1.384615,-0.621668 -2.399855,-0.621668 -2.298502,0 -3.447852,0.865225 -3.447852,2.595192 0,0.487315 0.105608,0.885092 0.316778,1.193723 0.219292,0.300512 0.511979,0.552464 0.877466,0.75551 0.373605,0.194927 0.804077,0.35736 1.291392,0.48731 0.495438,0.12995 1.022956,0.26825 1.583367,0.414446 1.128946,0.284265 1.941624,0.523893 2.437061,0.718817 0.495435,0.186804 0.93395,0.401783 1.315681,0.64544 0.389853,0.243657 0.722762,0.532063 0.998905,0.865063 0.276146,0.332996 0.491122,0.72273 0.64544,1.169437 0.162439,0.446704 0.243912,0.974738 0.243912,1.583883 0,1.49443 -0.548402,2.659869 -1.644862,3.496426 -1.041458,0.800526 -2.515375,1.213509 -4.412133,1.247987 a 10.205357,10.205357 0 0 0 4.911328,1.260904 10.205357,10.205357 0 0 0 9.209775,-5.832719 l -3.642672,-4.966103 -1.607653,1.19424 v 4.884973 h -2.19315 V 46.85037 a 10.205357,10.205357 0 0 0 -1.7663,-0.155545 z m 3.95945,0.810802 v 8.094596 l 4.268472,-4.718058 a 10.205357,10.205357 0 0 0 -4.268472,-3.376538 z m 5.237921,5.002279 -2.228805,2.361096 3.026172,4.041613 a 10.205357,10.205357 0 0 0 0.210326,-2.010729 10.205357,10.205357 0 0 0 -1.007693,-4.39198 z m -19.323367,3.186885 a 10.205357,10.205357 0 0 0 -0.07958,1.205095 10.205357,10.205357 0 0 0 2.338874,6.489524 c 0.703167,0.429649 1.622399,0.646988 2.762623,0.646988 1.291384,0 2.269742,-0.251952 2.935737,-0.755507 0.674119,-0.50356 1.011309,-1.218157 1.011309,-2.144056 0,-0.568534 -0.134019,-1.031698 -0.402042,-1.389063 C 20.623503,59.390408 20.27827,59.098236 19.847808,58.870824 19.417347,58.643409 18.930051,58.460609 18.385882,58.322536 17.849836,58.17634 17.305716,58.034278 16.753424,57.896205 15.445795,57.555086 14.51194,57.250075 13.951529,56.982049 13.399238,56.714026 12.956442,56.409531 12.623445,56.068411 12.510637,55.9501 12.410651,55.824286 12.316486,55.694791 Z"
       id="path819"
       inkscape:connector-curvature="0"
       inkscape:export-xdpi="150"
       inkscape:export-ydpi="150" />
    <text
       xml:space="preserve"
       style="font-style:normal;font-variant:normal;font-weight:normal;font-stretch:normal;font-size:10.97502995px;line-height:0;font-family:'CMU Serif';-inkscape-font-specification:'CMU Serif';letter-spacing:0px;word-spacing:0px;stroke-width:0.41156334;fill:#f9f9f9;fill-opacity:1;"
       x="37.822983"
       y="61.154404"
       id="text817"
       inkscape:export-xdpi="150"
       inkscape:export-ydpi="150"><tspan
         sodipodi:role="line"
         id="tspan815"
         x="37.822983"
         y="61.154404"
         style="font-style:normal;font-variant:normal;font-weight:600;font-stretch:normal;font-size:15.3650322px;font-family:'EB Garamond';-inkscape-font-specification:'EB Garamond Semi-Bold';stroke-width:0.41156334;fill:#f9f9f9;fill-opacity:1;">Sangram Kadam</tspan></text>
  </g>
</svg>
